<!--
  - Copyright (c) Norbert Kraft 2025. All rights reserved.
  -
  - This program is free software: you can redistribute it and/or modify
  - it under the terms of the GNU General Public License as published by
  - the Free Software Foundation, either version 3 of the License, or
  - (at your option) any later version.
  -
  - This program is distributed in the hope that it will be useful,
  - but WITHOUT ANY WARRANTY; without even the implied warranty of
  - MERCHANTABILITY or FITNESS FOR A PARTICULAR PURPOSE.  See the
  - GNU General Public License for more details.
  -
  - You should have received a copy of the GNU General Public License
  - along with this program.  If not, see <http://www.gnu.org/licenses/>.
  -
  - File: new_moon.svg
  - Last modified: 01/01/2025, 14:01
  -
  -->

<svg width="128" height="128" style="enable-background:new 0 0 128 128;" xmlns="http://www.w3.org/2000/svg" xmlns:xlink="http://www.w3.org/1999/xlink">
  <g>
    <path d="M63.8,2.38C29.73,2.38,2.11,30,2.11,64.07c0,34.07,27.62,61.69,61.69,61.69 c34.07,0,61.69-27.62,61.69-61.69C125.49,30,97.87,2.38,63.8,2.38z" style="fill:#2F2F2F;"/>
    <path d="M63.8,127L63.8,127C29.11,127,0.88,98.77,0.87,64.07c0-34.7,28.23-62.93,62.93-62.93 c34.7,0,62.93,28.23,62.93,62.93C126.72,98.77,98.5,127,63.8,127z M63.8,3.62c-33.33,0-60.45,27.12-60.45,60.46 c0,33.33,27.12,60.45,60.45,60.45c33.34,0,60.46-27.12,60.46-60.45C124.25,30.74,97.13,3.62,63.8,3.62z" style="fill:#FCC21B;"/>
  </g>
</svg>